<svg width="18" height="22" viewBox="0 0 18 22" fill="none" xmlns="http://www.w3.org/2000/svg">
<path fill-rule="evenodd" clip-rule="evenodd" d="M15.2824 10.9592H2.02462V19.4027H15.2824V10.9592ZM0 8.93457V21.4273H17.307V8.93457H0Z" fill="black"/>
<path fill-rule="evenodd" clip-rule="evenodd" d="M7.64111 17.131V13.3223H9.66574V17.131H7.64111Z" fill="black"/>
<path fill-rule="evenodd" clip-rule="evenodd" d="M6.1205 2.7234C5.50376 3.14077 5.15621 3.70047 5.15621 4.43426V9.66581H3.13159V4.43426C3.13159 2.91727 3.91144 1.77368 4.98579 1.04664C6.03218 0.338524 7.36666 0.00880783 8.64665 0.000174282C9.92611 -0.00845581 11.266 0.303082 12.3186 1.01067C13.4035 1.74 14.1754 2.89547 14.1754 4.43426V9.66581H12.1507V4.43426C12.1507 3.66144 11.7952 3.09841 11.189 2.69093C10.5506 2.26172 9.63562 2.01817 8.6603 2.02475C7.6855 2.03133 6.7652 2.28712 6.1205 2.7234Z" fill="black"/>
</svg>
