<svg width="20" height="22" viewBox="0 0 20 22" fill="none" xmlns="http://www.w3.org/2000/svg">
<path fill-rule="evenodd" clip-rule="evenodd" d="M9.65915 8.84372C11.5422 8.84372 13.0687 7.31721 13.0687 5.43417C13.0687 3.55113 11.5422 2.02462 9.65915 2.02462C7.7761 2.02462 6.2496 3.55113 6.2496 5.43417C6.2496 7.31721 7.7761 8.84372 9.65915 8.84372ZM9.65915 10.8683C12.6604 10.8683 15.0933 8.43538 15.0933 5.43417C15.0933 2.43296 12.6604 0 9.65915 0C6.65794 0 4.22498 2.43296 4.22498 5.43417C4.22498 8.43538 6.65794 10.8683 9.65915 10.8683Z" fill="black"/>
<path fill-rule="evenodd" clip-rule="evenodd" d="M9.65913 14.0681C5.42357 14.0681 2.02462 17.4286 2.02462 21.5317H0C0 16.2725 4.34369 12.0435 9.65913 12.0435C14.9746 12.0435 19.3183 16.2725 19.3183 21.5317H17.2936C17.2936 17.4286 13.8947 14.0681 9.65913 14.0681Z" fill="black"/>
</svg>
